<svg width="1200" height="127" viewBox="0 0 1200 127" fill="none" xmlns="http://www.w3.org/2000/svg">
<path d="M7.524 19.36V46H2.484V19.36H7.524ZM31.0435 35.596C31.0435 36.316 30.9955 36.964 30.8995 37.54H16.3195C16.4395 38.98 16.9435 40.108 17.8315 40.924C18.7195 41.74 19.8115 42.148 21.1075 42.148C22.9795 42.148 24.3115 41.344 25.1035 39.736H30.5395C29.9635 41.656 28.8595 43.24 27.2275 44.488C25.5955 45.712 23.5915 46.324 21.2155 46.324C19.2955 46.324 17.5675 45.904 16.0315 45.064C14.5195 44.2 13.3315 42.988 12.4675 41.428C11.6275 39.868 11.2075 38.068 11.2075 36.028C11.2075 33.964 11.6275 32.152 12.4675 30.592C13.3075 29.032 14.4835 27.832 15.9955 26.992C17.5075 26.152 19.2475 25.732 21.2155 25.732C23.1115 25.732 24.8035 26.14 26.2915 26.956C27.8035 27.772 28.9675 28.936 29.7835 30.448C30.6235 31.936 31.0435 33.652 31.0435 35.596ZM25.8235 34.156C25.7995 32.86 25.3315 31.828 24.4195 31.06C23.5075 30.268 22.3915 29.872 21.0715 29.872C19.8235 29.872 18.7675 30.256 17.9035 31.024C17.0635 31.768 16.5475 32.812 16.3555 34.156H25.8235ZM40.5903 30.196V39.844C40.5903 40.516 40.7463 41.008 41.0583 41.32C41.3943 41.608 41.9463 41.752 42.7143 41.752H45.0543V46H41.8863C37.6383 46 35.5143 43.936 35.5143 39.808V30.196H33.1383V26.056H35.5143V21.124H40.5903V26.056H45.0543V30.196H40.5903ZM51.8473 17.272L51.4153 24.904H47.9953L47.5273 17.272H51.8473ZM63.3426 46.324C61.7106 46.324 60.2466 46.036 58.9506 45.46C57.6546 44.86 56.6226 44.056 55.8546 43.048C55.1106 42.04 54.7026 40.924 54.6306 39.7H59.7066C59.8026 40.468 60.1746 41.104 60.8226 41.608C61.4946 42.112 62.3226 42.364 63.3066 42.364C64.2666 42.364 65.0106 42.172 65.5386 41.788C66.0906 41.404 66.3666 40.912 66.3666 40.312C66.3666 39.664 66.0306 39.184 65.3586 38.872C64.7106 38.536 63.6666 38.176 62.2266 37.792C60.7386 37.432 59.5146 37.06 58.5546 36.676C57.6186 36.292 56.8026 35.704 56.1066 34.912C55.4346 34.12 55.0986 33.052 55.0986 31.708C55.0986 30.604 55.4106 29.596 56.0346 28.684C56.6826 27.772 57.5946 27.052 58.7706 26.524C59.9706 25.996 61.3746 25.732 62.9826 25.732C65.3586 25.732 67.2546 26.332 68.6706 27.532C70.0866 28.708 70.8666 30.304 71.0106 32.32H66.1866C66.1146 31.528 65.7786 30.904 65.1786 30.448C64.6026 29.968 63.8226 29.728 62.8386 29.728C61.9266 29.728 61.2186 29.896 60.7146 30.232C60.2346 30.568 59.9946 31.036 59.9946 31.636C59.9946 32.308 60.3306 32.824 61.0026 33.184C61.6746 33.52 62.7186 33.868 64.1346 34.228C65.5746 34.588 66.7626 34.96 67.6986 35.344C68.6346 35.728 69.4386 36.328 70.1106 37.144C70.8066 37.936 71.1666 38.992 71.1906 40.312C71.1906 41.464 70.8666 42.496 70.2186 43.408C69.5946 44.32 68.6826 45.04 67.4826 45.568C66.3066 46.072 64.9266 46.324 63.3426 46.324ZM82.6099 35.956C82.6099 33.94 83.0059 32.152 83.7979 30.592C84.6139 29.032 85.7179 27.832 87.1099 26.992C88.5019 26.152 90.0499 25.732 91.7539 25.732C93.0499 25.732 94.2859 26.02 95.4619 26.596C96.6379 27.148 97.5739 27.892 98.2699 28.828V19.36H103.382V46H98.2699V43.048C97.6459 44.032 96.7699 44.824 95.6419 45.424C94.5139 46.024 93.2059 46.324 91.7179 46.324C90.0379 46.324 88.5019 45.892 87.1099 45.028C85.7179 44.164 84.6139 42.952 83.7979 41.392C83.0059 39.808 82.6099 37.996 82.6099 35.956ZM98.3059 36.028C98.3059 34.804 98.0659 33.76 97.5859 32.896C97.1059 32.008 96.4579 31.336 95.6419 30.88C94.8259 30.4 93.9499 30.16 93.0139 30.16C92.0779 30.16 91.2139 30.388 90.4219 30.844C89.6299 31.3 88.9819 31.972 88.4779 32.86C87.9979 33.724 87.7579 34.756 87.7579 35.956C87.7579 37.156 87.9979 38.212 88.4779 39.124C88.9819 40.012 89.6299 40.696 90.4219 41.176C91.2379 41.656 92.1019 41.896 93.0139 41.896C93.9499 41.896 94.8259 41.668 95.6419 41.212C96.4579 40.732 97.1059 40.06 97.5859 39.196C98.0659 38.308 98.3059 37.252 98.3059 36.028ZM110.86 23.68C109.972 23.68 109.228 23.404 108.628 22.852C108.052 22.276 107.764 21.568 107.764 20.728C107.764 19.888 108.052 19.192 108.628 18.64C109.228 18.064 109.972 17.776 110.86 17.776C111.748 17.776 112.48 18.064 113.056 18.64C113.656 19.192 113.956 19.888 113.956 20.728C113.956 21.568 113.656 22.276 113.056 22.852C112.48 23.404 111.748 23.68 110.86 23.68ZM113.344 26.056V46H108.304V26.056H113.344ZM125.956 46.324C124.324 46.324 122.86 46.036 121.564 45.46C120.268 44.86 119.236 44.056 118.468 43.048C117.724 42.04 117.316 40.924 117.244 39.7H122.32C122.416 40.468 122.788 41.104 123.436 41.608C124.108 42.112 124.936 42.364 125.92 42.364C126.88 42.364 127.624 42.172 128.152 41.788C128.704 41.404 128.98 40.912 128.98 40.312C128.98 39.664 128.644 39.184 127.972 38.872C127.324 38.536 126.28 38.176 124.84 37.792C123.352 37.432 122.128 37.06 121.168 36.676C120.232 36.292 119.416 35.704 118.72 34.912C118.048 34.12 117.712 33.052 117.712 31.708C117.712 30.604 118.024 29.596 118.648 28.684C119.296 27.772 120.208 27.052 121.384 26.524C122.584 25.996 123.988 25.732 125.596 25.732C127.972 25.732 129.868 26.332 131.284 27.532C132.7 28.708 133.48 30.304 133.624 32.32H128.8C128.728 31.528 128.392 30.904 127.792 30.448C127.216 29.968 126.436 29.728 125.452 29.728C124.54 29.728 123.832 29.896 123.328 30.232C122.848 30.568 122.608 31.036 122.608 31.636C122.608 32.308 122.944 32.824 123.616 33.184C124.288 33.52 125.332 33.868 126.748 34.228C128.188 34.588 129.376 34.96 130.312 35.344C131.248 35.728 132.052 36.328 132.724 37.144C133.42 37.936 133.78 38.992 133.804 40.312C133.804 41.464 133.48 42.496 132.832 43.408C132.208 44.32 131.296 45.04 130.096 45.568C128.92 46.072 127.54 46.324 125.956 46.324ZM136.645 36.028C136.645 33.964 137.065 32.164 137.905 30.628C138.745 29.068 139.909 27.868 141.397 27.028C142.885 26.164 144.589 25.732 146.509 25.732C148.981 25.732 151.021 26.356 152.629 27.604C154.261 28.828 155.353 30.556 155.905 32.788H150.469C150.181 31.924 149.689 31.252 148.993 30.772C148.321 30.268 147.481 30.016 146.473 30.016C145.033 30.016 143.893 30.544 143.053 31.6C142.213 32.632 141.793 34.108 141.793 36.028C141.793 37.924 142.213 39.4 143.053 40.456C143.893 41.488 145.033 42.004 146.473 42.004C148.513 42.004 149.845 41.092 150.469 39.268H155.905C155.353 41.428 154.261 43.144 152.629 44.416C150.997 45.688 148.957 46.324 146.509 46.324C144.589 46.324 142.885 45.904 141.397 45.064C139.909 44.2 138.745 43 137.905 41.464C137.065 39.904 136.645 38.092 136.645 36.028ZM178.425 26.056V46H173.349V43.48C172.701 44.344 171.849 45.028 170.793 45.532C169.761 46.012 168.633 46.252 167.409 46.252C165.849 46.252 164.469 45.928 163.269 45.28C162.069 44.608 161.121 43.636 160.425 42.364C159.753 41.068 159.417 39.532 159.417 37.756V26.056H164.457V37.036C164.457 38.62 164.853 39.844 165.645 40.708C166.437 41.548 167.517 41.968 168.885 41.968C170.277 41.968 171.369 41.548 172.161 40.708C172.953 39.844 173.349 38.62 173.349 37.036V26.056H178.425ZM191.03 46.324C189.398 46.324 187.934 46.036 186.638 45.46C185.342 44.86 184.31 44.056 183.542 43.048C182.798 42.04 182.39 40.924 182.318 39.7H187.394C187.49 40.468 187.862 41.104 188.51 41.608C189.182 42.112 190.01 42.364 190.994 42.364C191.954 42.364 192.698 42.172 193.226 41.788C193.778 41.404 194.054 40.912 194.054 40.312C194.054 39.664 193.718 39.184 193.046 38.872C192.398 38.536 191.354 38.176 189.914 37.792C188.426 37.432 187.202 37.06 186.242 36.676C185.306 36.292 184.49 35.704 183.794 34.912C183.122 34.12 182.786 33.052 182.786 31.708C182.786 30.604 183.098 29.596 183.722 28.684C184.37 27.772 185.282 27.052 186.458 26.524C187.658 25.996 189.062 25.732 190.67 25.732C193.046 25.732 194.942 26.332 196.358 27.532C197.774 28.708 198.554 30.304 198.698 32.32H193.874C193.802 31.528 193.466 30.904 192.866 30.448C192.29 29.968 191.51 29.728 190.526 29.728C189.614 29.728 188.906 29.896 188.402 30.232C187.922 30.568 187.682 31.036 187.682 31.636C187.682 32.308 188.018 32.824 188.69 33.184C189.362 33.52 190.406 33.868 191.822 34.228C193.262 34.588 194.45 34.96 195.386 35.344C196.322 35.728 197.126 36.328 197.798 37.144C198.494 37.936 198.854 38.992 198.878 40.312C198.878 41.464 198.554 42.496 197.906 43.408C197.282 44.32 196.37 45.04 195.17 45.568C193.994 46.072 192.614 46.324 191.03 46.324ZM210.647 46.324C209.015 46.324 207.551 46.036 206.255 45.46C204.959 44.86 203.927 44.056 203.159 43.048C202.415 42.04 202.007 40.924 201.935 39.7H207.011C207.107 40.468 207.479 41.104 208.127 41.608C208.799 42.112 209.627 42.364 210.611 42.364C211.571 42.364 212.315 42.172 212.843 41.788C213.395 41.404 213.671 40.912 213.671 40.312C213.671 39.664 213.335 39.184 212.663 38.872C212.015 38.536 210.971 38.176 209.531 37.792C208.043 37.432 206.819 37.06 205.859 36.676C204.923 36.292 204.107 35.704 203.411 34.912C202.739 34.12 202.403 33.052 202.403 31.708C202.403 30.604 202.715 29.596 203.339 28.684C203.987 27.772 204.899 27.052 206.075 26.524C207.275 25.996 208.679 25.732 210.287 25.732C212.663 25.732 214.559 26.332 215.975 27.532C217.391 28.708 218.171 30.304 218.315 32.32H213.491C213.419 31.528 213.083 30.904 212.483 30.448C211.907 29.968 211.127 29.728 210.143 29.728C209.231 29.728 208.523 29.896 208.019 30.232C207.539 30.568 207.299 31.036 207.299 31.636C207.299 32.308 207.635 32.824 208.307 33.184C208.979 33.52 210.023 33.868 211.439 34.228C212.879 34.588 214.067 34.96 215.003 35.344C215.939 35.728 216.743 36.328 217.415 37.144C218.111 37.936 218.471 38.992 218.495 40.312C218.495 41.464 218.171 42.496 217.523 43.408C216.899 44.32 215.987 45.04 214.787 45.568C213.611 46.072 212.231 46.324 210.647 46.324ZM255.979 25.768C258.427 25.768 260.395 26.524 261.883 28.036C263.395 29.524 264.151 31.612 264.151 34.3V46H259.111V34.984C259.111 33.424 258.715 32.236 257.923 31.42C257.131 30.58 256.051 30.16 254.683 30.16C253.315 30.16 252.223 30.58 251.407 31.42C250.615 32.236 250.219 33.424 250.219 34.984V46H245.179V34.984C245.179 33.424 244.783 32.236 243.991 31.42C243.199 30.58 242.119 30.16 240.751 30.16C239.359 30.16 238.255 30.58 237.439 31.42C236.647 32.236 236.251 33.424 236.251 34.984V46H231.211V26.056H236.251V28.468C236.899 27.628 237.727 26.968 238.735 26.488C239.767 26.008 240.895 25.768 242.119 25.768C243.679 25.768 245.071 26.104 246.295 26.776C247.519 27.424 248.467 28.36 249.139 29.584C249.787 28.432 250.723 27.508 251.947 26.812C253.195 26.116 254.539 25.768 255.979 25.768ZM267.637 35.956C267.637 33.94 268.033 32.152 268.825 30.592C269.641 29.032 270.733 27.832 272.101 26.992C273.493 26.152 275.041 25.732 276.745 25.732C278.233 25.732 279.529 26.032 280.633 26.632C281.761 27.232 282.661 27.988 283.333 28.9V26.056H288.409V46H283.333V43.084C282.685 44.02 281.785 44.8 280.633 45.424C279.505 46.024 278.197 46.324 276.709 46.324C275.029 46.324 273.493 45.892 272.101 45.028C270.733 44.164 269.641 42.952 268.825 41.392C268.033 39.808 267.637 37.996 267.637 35.956ZM283.333 36.028C283.333 34.804 283.093 33.76 282.613 32.896C282.133 32.008 281.485 31.336 280.669 30.88C279.853 30.4 278.977 30.16 278.041 30.16C277.105 30.16 276.241 30.388 275.449 30.844C274.657 31.3 274.009 31.972 273.505 32.86C273.025 33.724 272.785 34.756 272.785 35.956C272.785 37.156 273.025 38.212 273.505 39.124C274.009 40.012 274.657 40.696 275.449 41.176C276.265 41.656 277.129 41.896 278.041 41.896C278.977 41.896 279.853 41.668 280.669 41.212C281.485 40.732 282.133 40.06 282.613 39.196C283.093 38.308 283.333 37.252 283.333 36.028ZM305.14 46L298.372 37.504V46H293.332V19.36H298.372V34.516L305.068 26.056H311.62L302.836 36.064L311.692 46H305.14ZM316.911 23.68C316.023 23.68 315.279 23.404 314.679 22.852C314.103 22.276 313.815 21.568 313.815 20.728C313.815 19.888 314.103 19.192 314.679 18.64C315.279 18.064 316.023 17.776 316.911 17.776C317.799 17.776 318.531 18.064 319.107 18.64C319.707 19.192 320.007 19.888 320.007 20.728C320.007 21.568 319.707 22.276 319.107 22.852C318.531 23.404 317.799 23.68 316.911 23.68ZM319.395 26.056V46H314.355V26.056H319.395ZM335.427 25.768C337.803 25.768 339.723 26.524 341.187 28.036C342.651 29.524 343.383 31.612 343.383 34.3V46H338.343V34.984C338.343 33.4 337.947 32.188 337.155 31.348C336.363 30.484 335.283 30.052 333.915 30.052C332.523 30.052 331.419 30.484 330.603 31.348C329.811 32.188 329.415 33.4 329.415 34.984V46H324.375V26.056H329.415V28.54C330.087 27.676 330.939 27.004 331.971 26.524C333.027 26.02 334.179 25.768 335.427 25.768ZM355.987 25.732C357.475 25.732 358.783 26.032 359.911 26.632C361.039 27.208 361.927 27.964 362.575 28.9V26.056H367.651V46.144C367.651 47.992 367.279 49.636 366.535 51.076C365.791 52.54 364.675 53.692 363.187 54.532C361.699 55.396 359.899 55.828 357.787 55.828C354.955 55.828 352.627 55.168 350.803 53.848C349.003 52.528 347.983 50.728 347.743 48.448H352.747C353.011 49.36 353.575 50.08 354.439 50.608C355.327 51.16 356.395 51.436 357.643 51.436C359.107 51.436 360.295 50.992 361.207 50.104C362.119 49.24 362.575 47.92 362.575 46.144V43.048C361.927 43.984 361.027 44.764 359.875 45.388C358.747 46.012 357.451 46.324 355.987 46.324C354.307 46.324 352.771 45.892 351.379 45.028C349.987 44.164 348.883 42.952 348.067 41.392C347.275 39.808 346.879 37.996 346.879 35.956C346.879 33.94 347.275 32.152 348.067 30.592C348.883 29.032 349.975 27.832 351.343 26.992C352.735 26.152 354.283 25.732 355.987 25.732ZM362.575 36.028C362.575 34.804 362.335 33.76 361.855 32.896C361.375 32.008 360.727 31.336 359.911 30.88C359.095 30.4 358.219 30.16 357.283 30.16C356.347 30.16 355.483 30.388 354.691 30.844C353.899 31.3 353.251 31.972 352.747 32.86C352.267 33.724 352.027 34.756 352.027 35.956C352.027 37.156 352.267 38.212 352.747 39.124C353.251 40.012 353.899 40.696 354.691 41.176C355.507 41.656 356.371 41.896 357.283 41.896C358.219 41.896 359.095 41.668 359.911 41.212C360.727 40.732 361.375 40.06 361.855 39.196C362.335 38.308 362.575 37.252 362.575 36.028ZM400.232 26.056L387.884 55.432H382.52L386.84 45.496L378.848 26.056H384.5L389.648 39.988L394.868 26.056H400.232ZM411.805 46.324C409.885 46.324 408.157 45.904 406.621 45.064C405.085 44.2 403.873 42.988 402.985 41.428C402.121 39.868 401.689 38.068 401.689 36.028C401.689 33.988 402.133 32.188 403.021 30.628C403.933 29.068 405.169 27.868 406.729 27.028C408.289 26.164 410.029 25.732 411.949 25.732C413.869 25.732 415.609 26.164 417.169 27.028C418.729 27.868 419.953 29.068 420.841 30.628C421.753 32.188 422.209 33.988 422.209 36.028C422.209 38.068 421.741 39.868 420.805 41.428C419.893 42.988 418.645 44.2 417.061 45.064C415.501 45.904 413.749 46.324 411.805 46.324ZM411.805 41.932C412.717 41.932 413.569 41.716 414.361 41.284C415.177 40.828 415.825 40.156 416.305 39.268C416.785 38.38 417.025 37.3 417.025 36.028C417.025 34.132 416.521 32.68 415.513 31.672C414.529 30.64 413.317 30.124 411.877 30.124C410.437 30.124 409.225 30.64 408.241 31.672C407.281 32.68 406.801 34.132 406.801 36.028C406.801 37.924 407.269 39.388 408.205 40.42C409.165 41.428 410.365 41.932 411.805 41.932ZM444.734 26.056V46H439.658V43.48C439.01 44.344 438.158 45.028 437.102 45.532C436.07 46.012 434.942 46.252 433.718 46.252C432.158 46.252 430.778 45.928 429.578 45.28C428.378 44.608 427.43 43.636 426.734 42.364C426.062 41.068 425.726 39.532 425.726 37.756V26.056H430.766V37.036C430.766 38.62 431.162 39.844 431.954 40.708C432.746 41.548 433.826 41.968 435.194 41.968C436.586 41.968 437.678 41.548 438.47 40.708C439.262 39.844 439.658 38.62 439.658 37.036V26.056H444.734ZM454.747 29.152C455.395 28.096 456.235 27.268 457.267 26.668C458.323 26.068 459.523 25.768 460.867 25.768V31.06H459.535C457.951 31.06 456.751 31.432 455.935 32.176C455.143 32.92 454.747 34.216 454.747 36.064V46H449.707V26.056H454.747V29.152ZM475.395 23.68C474.507 23.68 473.763 23.404 473.163 22.852C472.587 22.276 472.299 21.568 472.299 20.728C472.299 19.888 472.587 19.192 473.163 18.64C473.763 18.064 474.507 17.776 475.395 17.776C476.283 17.776 477.015 18.064 477.591 18.64C478.191 19.192 478.491 19.888 478.491 20.728C478.491 21.568 478.191 22.276 477.591 22.852C477.015 23.404 476.283 23.68 475.395 23.68ZM477.879 26.056V46H472.839V26.056H477.879ZM493.911 25.768C496.287 25.768 498.207 26.524 499.671 28.036C501.135 29.524 501.867 31.612 501.867 34.3V46H496.827V34.984C496.827 33.4 496.431 32.188 495.639 31.348C494.847 30.484 493.767 30.052 492.399 30.052C491.007 30.052 489.903 30.484 489.087 31.348C488.295 32.188 487.899 33.4 487.899 34.984V46H482.859V26.056H487.899V28.54C488.571 27.676 489.423 27.004 490.455 26.524C491.511 26.02 492.663 25.768 493.911 25.768ZM512.528 30.196V39.844C512.528 40.516 512.684 41.008 512.996 41.32C513.332 41.608 513.884 41.752 514.652 41.752H516.992V46H513.824C509.576 46 507.452 43.936 507.452 39.808V30.196H505.076V26.056H507.452V21.124H512.528V26.056H516.992V30.196H512.528ZM539.157 35.596C539.157 36.316 539.109 36.964 539.013 37.54H524.433C524.553 38.98 525.057 40.108 525.945 40.924C526.833 41.74 527.925 42.148 529.221 42.148C531.093 42.148 532.425 41.344 533.217 39.736H538.653C538.077 41.656 536.973 43.24 535.341 44.488C533.709 45.712 531.705 46.324 529.329 46.324C527.409 46.324 525.681 45.904 524.145 45.064C522.633 44.2 521.445 42.988 520.581 41.428C519.741 39.868 519.321 38.068 519.321 36.028C519.321 33.964 519.741 32.152 520.581 30.592C521.421 29.032 522.597 27.832 524.109 26.992C525.621 26.152 527.361 25.732 529.329 25.732C531.225 25.732 532.917 26.14 534.405 26.956C535.917 27.772 537.081 28.936 537.897 30.448C538.737 31.936 539.157 33.652 539.157 35.596ZM533.937 34.156C533.913 32.86 533.445 31.828 532.533 31.06C531.621 30.268 530.505 29.872 529.185 29.872C527.937 29.872 526.881 30.256 526.017 31.024C525.177 31.768 524.661 32.812 524.469 34.156H533.937ZM547.876 29.152C548.524 28.096 549.364 27.268 550.396 26.668C551.452 26.068 552.652 25.768 553.996 25.768V31.06H552.664C551.08 31.06 549.88 31.432 549.064 32.176C548.272 32.92 547.876 34.216 547.876 36.064V46H542.836V26.056H547.876V29.152ZM559.946 23.68C559.058 23.68 558.314 23.404 557.714 22.852C557.138 22.276 556.85 21.568 556.85 20.728C556.85 19.888 557.138 19.192 557.714 18.64C558.314 18.064 559.058 17.776 559.946 17.776C560.834 17.776 561.566 18.064 562.142 18.64C562.742 19.192 563.042 19.888 563.042 20.728C563.042 21.568 562.742 22.276 562.142 22.852C561.566 23.404 560.834 23.68 559.946 23.68ZM562.43 26.056V46H557.39V26.056H562.43ZM576.266 46.324C574.346 46.324 572.618 45.904 571.082 45.064C569.546 44.2 568.334 42.988 567.446 41.428C566.582 39.868 566.15 38.068 566.15 36.028C566.15 33.988 566.594 32.188 567.482 30.628C568.394 29.068 569.63 27.868 571.19 27.028C572.75 26.164 574.49 25.732 576.41 25.732C578.33 25.732 580.07 26.164 581.63 27.028C583.19 27.868 584.414 29.068 585.302 30.628C586.214 32.188 586.67 33.988 586.67 36.028C586.67 38.068 586.202 39.868 585.266 41.428C584.354 42.988 583.106 44.2 581.522 45.064C579.962 45.904 578.21 46.324 576.266 46.324ZM576.266 41.932C577.178 41.932 578.03 41.716 578.822 41.284C579.638 40.828 580.286 40.156 580.766 39.268C581.246 38.38 581.486 37.3 581.486 36.028C581.486 34.132 580.982 32.68 579.974 31.672C578.99 30.64 577.778 30.124 576.338 30.124C574.898 30.124 573.686 30.64 572.702 31.672C571.742 32.68 571.262 34.132 571.262 36.028C571.262 37.924 571.73 39.388 572.666 40.42C573.626 41.428 574.826 41.932 576.266 41.932ZM595.407 29.152C596.055 28.096 596.895 27.268 597.927 26.668C598.983 26.068 600.183 25.768 601.527 25.768V31.06H600.195C598.611 31.06 597.411 31.432 596.595 32.176C595.803 32.92 595.407 34.216 595.407 36.064V46H590.367V26.056H595.407V29.152ZM7.524 80.36V107H2.484V80.36H7.524ZM15.0595 84.68C14.1715 84.68 13.4275 84.404 12.8275 83.852C12.2515 83.276 11.9635 82.568 11.9635 81.728C11.9635 80.888 12.2515 80.192 12.8275 79.64C13.4275 79.064 14.1715 78.776 15.0595 78.776C15.9475 78.776 16.6795 79.064 17.2555 79.64C17.8555 80.192 18.1555 80.888 18.1555 81.728C18.1555 82.568 17.8555 83.276 17.2555 83.852C16.6795 84.404 15.9475 84.68 15.0595 84.68ZM17.5435 87.056V107H12.5035V87.056H17.5435ZM34.3311 107L27.5631 98.504V107H22.5231V80.36H27.5631V95.516L34.2591 87.056H40.8111L32.0271 97.064L40.8831 107H34.3311ZM62.0865 96.596C62.0865 97.316 62.0385 97.964 61.9425 98.54H47.3625C47.4825 99.98 47.9865 101.108 48.8745 101.924C49.7625 102.74 50.8545 103.148 52.1505 103.148C54.0225 103.148 55.3545 102.344 56.1465 100.736H61.5825C61.0065 102.656 59.9025 104.24 58.2705 105.488C56.6385 106.712 54.6345 107.324 52.2585 107.324C50.3385 107.324 48.6105 106.904 47.0745 106.064C45.5625 105.2 44.3745 103.988 43.5105 102.428C42.6705 100.868 42.2505 99.068 42.2505 97.028C42.2505 94.964 42.6705 93.152 43.5105 91.592C44.3505 90.032 45.5265 88.832 47.0385 87.992C48.5505 87.152 50.2905 86.732 52.2585 86.732C54.1545 86.732 55.8465 87.14 57.3345 87.956C58.8465 88.772 60.0105 89.936 60.8265 91.448C61.6665 92.936 62.0865 94.652 62.0865 96.596ZM56.8665 95.156C56.8425 93.86 56.3745 92.828 55.4625 92.06C54.5505 91.268 53.4345 90.872 52.1145 90.872C50.8665 90.872 49.8105 91.256 48.9465 92.024C48.1065 92.768 47.5905 93.812 47.3985 95.156H56.8665ZM73.0474 96.956C73.0474 94.94 73.4434 93.152 74.2354 91.592C75.0514 90.032 76.1434 88.832 77.5114 87.992C78.9034 87.152 80.4514 86.732 82.1554 86.732C83.6434 86.732 84.9394 87.032 86.0434 87.632C87.1714 88.232 88.0714 88.988 88.7434 89.9V87.056H93.8194V107H88.7434V104.084C88.0954 105.02 87.1954 105.8 86.0434 106.424C84.9154 107.024 83.6074 107.324 82.1194 107.324C80.4394 107.324 78.9034 106.892 77.5114 106.028C76.1434 105.164 75.0514 103.952 74.2354 102.392C73.4434 100.808 73.0474 98.996 73.0474 96.956ZM88.7434 97.028C88.7434 95.804 88.5034 94.76 88.0234 93.896C87.5434 93.008 86.8954 92.336 86.0794 91.88C85.2634 91.4 84.3874 91.16 83.4514 91.16C82.5154 91.16 81.6514 91.388 80.8594 91.844C80.0674 92.3 79.4194 92.972 78.9154 93.86C78.4354 94.724 78.1954 95.756 78.1954 96.956C78.1954 98.156 78.4354 99.212 78.9154 100.124C79.4194 101.012 80.0674 101.696 80.8594 102.176C81.6754 102.656 82.5394 102.896 83.4514 102.896C84.3874 102.896 85.2634 102.668 86.0794 102.212C86.8954 101.732 87.5434 101.06 88.0234 100.196C88.5034 99.308 88.7434 98.252 88.7434 97.028ZM106.024 96.956C106.024 94.94 106.42 93.152 107.212 91.592C108.028 90.032 109.132 88.832 110.524 87.992C111.916 87.152 113.464 86.732 115.168 86.732C116.464 86.732 117.7 87.02 118.876 87.596C120.052 88.148 120.988 88.892 121.684 89.828V80.36H126.796V107H121.684V104.048C121.06 105.032 120.184 105.824 119.056 106.424C117.928 107.024 116.62 107.324 115.132 107.324C113.452 107.324 111.916 106.892 110.524 106.028C109.132 105.164 108.028 103.952 107.212 102.392C106.42 100.808 106.024 98.996 106.024 96.956ZM121.72 97.028C121.72 95.804 121.48 94.76 121 93.896C120.52 93.008 119.872 92.336 119.056 91.88C118.24 91.4 117.364 91.16 116.428 91.16C115.492 91.16 114.628 91.388 113.836 91.844C113.044 92.3 112.396 92.972 111.892 93.86C111.412 94.724 111.172 95.756 111.172 96.956C111.172 98.156 111.412 99.212 111.892 100.124C112.396 101.012 113.044 101.696 113.836 102.176C114.652 102.656 115.516 102.896 116.428 102.896C117.364 102.896 118.24 102.668 119.056 102.212C119.872 101.732 120.52 101.06 121 100.196C121.48 99.308 121.72 98.252 121.72 97.028ZM136.758 90.152C137.406 89.096 138.246 88.268 139.278 87.668C140.334 87.068 141.534 86.768 142.878 86.768V92.06H141.546C139.962 92.06 138.762 92.432 137.946 93.176C137.154 93.92 136.758 95.216 136.758 97.064V107H131.718V87.056H136.758V90.152ZM164.813 96.596C164.813 97.316 164.765 97.964 164.669 98.54H150.089C150.209 99.98 150.713 101.108 151.601 101.924C152.489 102.74 153.581 103.148 154.877 103.148C156.749 103.148 158.081 102.344 158.873 100.736H164.309C163.733 102.656 162.629 104.24 160.997 105.488C159.365 106.712 157.361 107.324 154.985 107.324C153.065 107.324 151.337 106.904 149.801 106.064C148.289 105.2 147.101 103.988 146.237 102.428C145.397 100.868 144.977 99.068 144.977 97.028C144.977 94.964 145.397 93.152 146.237 91.592C147.077 90.032 148.253 88.832 149.765 87.992C151.277 87.152 153.017 86.732 154.985 86.732C156.881 86.732 158.573 87.14 160.061 87.956C161.573 88.772 162.737 89.936 163.553 91.448C164.393 92.936 164.813 94.652 164.813 96.596ZM159.593 95.156C159.569 93.86 159.101 92.828 158.189 92.06C157.277 91.268 156.161 90.872 154.841 90.872C153.593 90.872 152.537 91.256 151.673 92.024C150.833 92.768 150.317 93.812 150.125 95.156H159.593ZM167.196 96.956C167.196 94.94 167.592 93.152 168.384 91.592C169.2 90.032 170.292 88.832 171.66 87.992C173.052 87.152 174.6 86.732 176.304 86.732C177.792 86.732 179.088 87.032 180.192 87.632C181.32 88.232 182.22 88.988 182.892 89.9V87.056H187.968V107H182.892V104.084C182.244 105.02 181.344 105.8 180.192 106.424C179.064 107.024 177.756 107.324 176.268 107.324C174.588 107.324 173.052 106.892 171.66 106.028C170.292 105.164 169.2 103.952 168.384 102.392C167.592 100.808 167.196 98.996 167.196 96.956ZM182.892 97.028C182.892 95.804 182.652 94.76 182.172 93.896C181.692 93.008 181.044 92.336 180.228 91.88C179.412 91.4 178.536 91.16 177.6 91.16C176.664 91.16 175.8 91.388 175.008 91.844C174.216 92.3 173.568 92.972 173.064 93.86C172.584 94.724 172.344 95.756 172.344 96.956C172.344 98.156 172.584 99.212 173.064 100.124C173.568 101.012 174.216 101.696 175.008 102.176C175.824 102.656 176.688 102.896 177.6 102.896C178.536 102.896 179.412 102.668 180.228 102.212C181.044 101.732 181.692 101.06 182.172 100.196C182.652 99.308 182.892 98.252 182.892 97.028ZM217.658 86.768C220.106 86.768 222.074 87.524 223.562 89.036C225.074 90.524 225.83 92.612 225.83 95.3V107H220.79V95.984C220.79 94.424 220.394 93.236 219.602 92.42C218.81 91.58 217.73 91.16 216.362 91.16C214.994 91.16 213.902 91.58 213.086 92.42C212.294 93.236 211.898 94.424 211.898 95.984V107H206.858V95.984C206.858 94.424 206.462 93.236 205.67 92.42C204.878 91.58 203.798 91.16 202.43 91.16C201.038 91.16 199.934 91.58 199.118 92.42C198.326 93.236 197.93 94.424 197.93 95.984V107H192.89V87.056H197.93V89.468C198.578 88.628 199.406 87.968 200.414 87.488C201.446 87.008 202.574 86.768 203.798 86.768C205.358 86.768 206.75 87.104 207.974 87.776C209.198 88.424 210.146 89.36 210.818 90.584C211.466 89.432 212.402 88.508 213.626 87.812C214.874 87.116 216.218 86.768 217.658 86.768ZM244.231 89.936C244.879 89.024 245.767 88.268 246.895 87.668C248.047 87.044 249.355 86.732 250.819 86.732C252.523 86.732 254.059 87.152 255.427 87.992C256.819 88.832 257.911 90.032 258.703 91.592C259.519 93.128 259.927 94.916 259.927 96.956C259.927 98.996 259.519 100.808 258.703 102.392C257.911 103.952 256.819 105.164 255.427 106.028C254.059 106.892 252.523 107.324 250.819 107.324C249.355 107.324 248.059 107.024 246.931 106.424C245.827 105.824 244.927 105.068 244.231 104.156V116.504H239.191V87.056H244.231V89.936ZM254.779 96.956C254.779 95.756 254.527 94.724 254.023 93.86C253.543 92.972 252.895 92.3 252.079 91.844C251.287 91.388 250.423 91.16 249.487 91.16C248.575 91.16 247.711 91.4 246.895 91.88C246.103 92.336 245.455 93.008 244.951 93.896C244.471 94.784 244.231 95.828 244.231 97.028C244.231 98.228 244.471 99.272 244.951 100.16C245.455 101.048 246.103 101.732 246.895 102.212C247.711 102.668 248.575 102.896 249.487 102.896C250.423 102.896 251.287 102.656 252.079 102.176C252.895 101.696 253.543 101.012 254.023 100.124C254.527 99.236 254.779 98.18 254.779 96.956ZM268.629 80.36V107H263.589V80.36H268.629ZM272.313 96.956C272.313 94.94 272.709 93.152 273.501 91.592C274.317 90.032 275.409 88.832 276.777 87.992C278.169 87.152 279.717 86.732 281.421 86.732C282.909 86.732 284.205 87.032 285.309 87.632C286.437 88.232 287.337 88.988 288.009 89.9V87.056H293.085V107H288.009V104.084C287.361 105.02 286.461 105.8 285.309 106.424C284.181 107.024 282.873 107.324 281.385 107.324C279.705 107.324 278.169 106.892 276.777 106.028C275.409 105.164 274.317 103.952 273.501 102.392C272.709 100.808 272.313 98.996 272.313 96.956ZM288.009 97.028C288.009 95.804 287.769 94.76 287.289 93.896C286.809 93.008 286.161 92.336 285.345 91.88C284.529 91.4 283.653 91.16 282.717 91.16C281.781 91.16 280.917 91.388 280.125 91.844C279.333 92.3 278.685 92.972 278.181 93.86C277.701 94.724 277.461 95.756 277.461 96.956C277.461 98.156 277.701 99.212 278.181 100.124C278.685 101.012 279.333 101.696 280.125 102.176C280.941 102.656 281.805 102.896 282.717 102.896C283.653 102.896 284.529 102.668 285.345 102.212C286.161 101.732 286.809 101.06 287.289 100.196C287.769 99.308 288.009 98.252 288.009 97.028ZM296.711 97.028C296.711 94.964 297.131 93.164 297.971 91.628C298.811 90.068 299.975 88.868 301.463 88.028C302.951 87.164 304.655 86.732 306.575 86.732C309.047 86.732 311.087 87.356 312.695 88.604C314.327 89.828 315.419 91.556 315.971 93.788H310.535C310.247 92.924 309.755 92.252 309.059 91.772C308.387 91.268 307.547 91.016 306.539 91.016C305.099 91.016 303.959 91.544 303.119 92.6C302.279 93.632 301.859 95.108 301.859 97.028C301.859 98.924 302.279 100.4 303.119 101.456C303.959 102.488 305.099 103.004 306.539 103.004C308.579 103.004 309.911 102.092 310.535 100.268H315.971C315.419 102.428 314.327 104.144 312.695 105.416C311.063 106.688 309.023 107.324 306.575 107.324C304.655 107.324 302.951 106.904 301.463 106.064C299.975 105.2 298.811 104 297.971 102.464C297.131 100.904 296.711 99.092 296.711 97.028ZM338.204 96.596C338.204 97.316 338.156 97.964 338.06 98.54H323.48C323.6 99.98 324.104 101.108 324.992 101.924C325.88 102.74 326.972 103.148 328.268 103.148C330.14 103.148 331.472 102.344 332.264 100.736H337.7C337.124 102.656 336.02 104.24 334.388 105.488C332.756 106.712 330.752 107.324 328.376 107.324C326.456 107.324 324.728 106.904 323.192 106.064C321.68 105.2 320.492 103.988 319.628 102.428C318.788 100.868 318.368 99.068 318.368 97.028C318.368 94.964 318.788 93.152 319.628 91.592C320.468 90.032 321.644 88.832 323.156 87.992C324.668 87.152 326.408 86.732 328.376 86.732C330.272 86.732 331.964 87.14 333.452 87.956C334.964 88.772 336.128 89.936 336.944 91.448C337.784 92.936 338.204 94.652 338.204 96.596ZM332.984 95.156C332.96 93.86 332.492 92.828 331.58 92.06C330.668 91.268 329.552 90.872 328.232 90.872C326.984 90.872 325.928 91.256 325.064 92.024C324.224 92.768 323.708 93.812 323.516 95.156H332.984ZM348.398 81.44L347.822 98.828H343.574L342.962 81.44H348.398ZM345.806 107.252C344.894 107.252 344.138 106.976 343.538 106.424C342.962 105.848 342.674 105.14 342.674 104.3C342.674 103.46 342.962 102.764 343.538 102.212C344.138 101.636 344.894 101.348 345.806 101.348C346.694 101.348 347.426 101.636 348.002 102.212C348.578 102.764 348.866 103.46 348.866 104.3C348.866 105.14 348.578 105.848 348.002 106.424C347.426 106.976 346.694 107.252 345.806 107.252Z" fill="white"/>
<path d="M768.774 14.718C768.774 13.494 769.05 12.396 769.602 11.424C770.154 10.44 770.904 9.672 771.852 9.12C772.812 8.568 773.874 8.292 775.038 8.292C776.406 8.292 777.6 8.622 778.62 9.282C779.64 9.942 780.384 10.878 780.852 12.09H778.89C778.542 11.334 778.038 10.752 777.378 10.344C776.73 9.936 775.95 9.732 775.038 9.732C774.162 9.732 773.376 9.936 772.68 10.344C771.984 10.752 771.438 11.334 771.042 12.09C770.646 12.834 770.448 13.71 770.448 14.718C770.448 15.714 770.646 16.59 771.042 17.346C771.438 18.09 771.984 18.666 772.68 19.074C773.376 19.482 774.162 19.686 775.038 19.686C775.95 19.686 776.73 19.488 777.378 19.092C778.038 18.684 778.542 18.102 778.89 17.346H780.852C780.384 18.546 779.64 19.476 778.62 20.136C777.6 20.784 776.406 21.108 775.038 21.108C773.874 21.108 772.812 20.838 771.852 20.298C770.904 19.746 770.154 18.984 769.602 18.012C769.05 17.04 768.774 15.942 768.774 14.718ZM787.592 21.162C786.668 21.162 785.828 20.952 785.072 20.532C784.328 20.112 783.74 19.518 783.308 18.75C782.888 17.97 782.678 17.07 782.678 16.05C782.678 15.042 782.894 14.154 783.326 13.386C783.77 12.606 784.37 12.012 785.126 11.604C785.882 11.184 786.728 10.974 787.664 10.974C788.6 10.974 789.446 11.184 790.202 11.604C790.958 12.012 791.552 12.6 791.984 13.368C792.428 14.136 792.65 15.03 792.65 16.05C792.65 17.07 792.422 17.97 791.966 18.75C791.522 19.518 790.916 20.112 790.148 20.532C789.38 20.952 788.528 21.162 787.592 21.162ZM787.592 19.722C788.18 19.722 788.732 19.584 789.248 19.308C789.764 19.032 790.178 18.618 790.49 18.066C790.814 17.514 790.976 16.842 790.976 16.05C790.976 15.258 790.82 14.586 790.508 14.034C790.196 13.482 789.788 13.074 789.284 12.81C788.78 12.534 788.234 12.396 787.646 12.396C787.046 12.396 786.494 12.534 785.99 12.81C785.498 13.074 785.102 13.482 784.802 14.034C784.502 14.586 784.352 15.258 784.352 16.05C784.352 16.854 784.496 17.532 784.784 18.084C785.084 18.636 785.48 19.05 785.972 19.326C786.464 19.59 787.004 19.722 787.592 19.722ZM799.61 10.956C800.81 10.956 801.782 11.322 802.526 12.054C803.27 12.774 803.642 13.818 803.642 15.186V21H802.022V15.42C802.022 14.436 801.776 13.686 801.284 13.17C800.792 12.642 800.12 12.378 799.268 12.378C798.404 12.378 797.714 12.648 797.198 13.188C796.694 13.728 796.442 14.514 796.442 15.546V21H794.804V11.136H796.442V12.54C796.766 12.036 797.204 11.646 797.756 11.37C798.32 11.094 798.938 10.956 799.61 10.956ZM808.316 12.486V18.3C808.316 18.78 808.418 19.122 808.622 19.326C808.826 19.518 809.18 19.614 809.684 19.614H810.89V21H809.414C808.502 21 807.818 20.79 807.362 20.37C806.906 19.95 806.678 19.26 806.678 18.3V12.486H805.4V11.136H806.678V8.652H808.316V11.136H810.89V12.486H808.316ZM812.262 16.032C812.262 15.024 812.466 14.142 812.874 13.386C813.282 12.618 813.84 12.024 814.548 11.604C815.268 11.184 816.066 10.974 816.942 10.974C817.806 10.974 818.556 11.16 819.192 11.532C819.828 11.904 820.302 12.372 820.614 12.936V11.136H822.27V21H820.614V19.164C820.29 19.74 819.804 20.22 819.156 20.604C818.52 20.976 817.776 21.162 816.924 21.162C816.048 21.162 815.256 20.946 814.548 20.514C813.84 20.082 813.282 19.476 812.874 18.696C812.466 17.916 812.262 17.028 812.262 16.032ZM820.614 16.05C820.614 15.306 820.464 14.658 820.164 14.106C819.864 13.554 819.456 13.134 818.94 12.846C818.436 12.546 817.878 12.396 817.266 12.396C816.654 12.396 816.096 12.54 815.592 12.828C815.088 13.116 814.686 13.536 814.386 14.088C814.086 14.64 813.936 15.288 813.936 16.032C813.936 16.788 814.086 17.448 814.386 18.012C814.686 18.564 815.088 18.99 815.592 19.29C816.096 19.578 816.654 19.722 817.266 19.722C817.878 19.722 818.436 19.578 818.94 19.29C819.456 18.99 819.864 18.564 820.164 18.012C820.464 17.448 820.614 16.794 820.614 16.05ZM824.426 16.05C824.426 15.03 824.63 14.142 825.038 13.386C825.446 12.618 826.01 12.024 826.73 11.604C827.462 11.184 828.296 10.974 829.232 10.974C830.444 10.974 831.44 11.268 832.22 11.856C833.012 12.444 833.534 13.26 833.786 14.304H832.022C831.854 13.704 831.524 13.23 831.032 12.882C830.552 12.534 829.952 12.36 829.232 12.36C828.296 12.36 827.54 12.684 826.964 13.332C826.388 13.968 826.1 14.874 826.1 16.05C826.1 17.238 826.388 18.156 826.964 18.804C827.54 19.452 828.296 19.776 829.232 19.776C829.952 19.776 830.552 19.608 831.032 19.272C831.512 18.936 831.842 18.456 832.022 17.832H833.786C833.522 18.84 832.994 19.65 832.202 20.262C831.41 20.862 830.42 21.162 829.232 21.162C828.296 21.162 827.462 20.952 826.73 20.532C826.01 20.112 825.446 19.518 825.038 18.75C824.63 17.982 824.426 17.082 824.426 16.05ZM837.97 12.486V18.3C837.97 18.78 838.072 19.122 838.276 19.326C838.48 19.518 838.834 19.614 839.338 19.614H840.544V21H839.068C838.156 21 837.472 20.79 837.016 20.37C836.56 19.95 836.332 19.26 836.332 18.3V12.486H835.054V11.136H836.332V8.652H837.97V11.136H840.544V12.486H837.97ZM856.075 11.136V21H854.437V19.542C854.125 20.046 853.687 20.442 853.123 20.73C852.571 21.006 851.959 21.144 851.287 21.144C850.519 21.144 849.829 20.988 849.217 20.676C848.605 20.352 848.119 19.872 847.759 19.236C847.411 18.6 847.237 17.826 847.237 16.914V11.136H848.857V16.698C848.857 17.67 849.103 18.42 849.595 18.948C850.087 19.464 850.759 19.722 851.611 19.722C852.487 19.722 853.177 19.452 853.681 18.912C854.185 18.372 854.437 17.586 854.437 16.554V11.136H856.075ZM862.333 21.162C861.577 21.162 860.899 21.036 860.299 20.784C859.699 20.52 859.225 20.16 858.877 19.704C858.529 19.236 858.337 18.702 858.301 18.102H859.993C860.041 18.594 860.269 18.996 860.677 19.308C861.097 19.62 861.643 19.776 862.315 19.776C862.939 19.776 863.431 19.638 863.791 19.362C864.151 19.086 864.331 18.738 864.331 18.318C864.331 17.886 864.139 17.568 863.755 17.364C863.371 17.148 862.777 16.938 861.973 16.734C861.241 16.542 860.641 16.35 860.173 16.158C859.717 15.954 859.321 15.66 858.985 15.276C858.661 14.88 858.499 14.364 858.499 13.728C858.499 13.224 858.649 12.762 858.949 12.342C859.249 11.922 859.675 11.592 860.227 11.352C860.779 11.1 861.409 10.974 862.117 10.974C863.209 10.974 864.091 11.25 864.763 11.802C865.435 12.354 865.795 13.11 865.843 14.07H864.205C864.169 13.554 863.959 13.14 863.575 12.828C863.203 12.516 862.699 12.36 862.063 12.36C861.475 12.36 861.007 12.486 860.659 12.738C860.311 12.99 860.137 13.32 860.137 13.728C860.137 14.052 860.239 14.322 860.443 14.538C860.659 14.742 860.923 14.91 861.235 15.042C861.559 15.162 862.003 15.3 862.567 15.456C863.275 15.648 863.851 15.84 864.295 16.032C864.739 16.212 865.117 16.488 865.429 16.86C865.753 17.232 865.921 17.718 865.933 18.318C865.933 18.858 865.783 19.344 865.483 19.776C865.183 20.208 864.757 20.55 864.205 20.802C863.665 21.042 863.041 21.162 862.333 21.162ZM874.682 12.972C875.018 12.384 875.51 11.904 876.158 11.532C876.806 11.16 877.544 10.974 878.372 10.974C879.26 10.974 880.058 11.184 880.766 11.604C881.474 12.024 882.032 12.618 882.44 13.386C882.848 14.142 883.052 15.024 883.052 16.032C883.052 17.028 882.848 17.916 882.44 18.696C882.032 19.476 881.468 20.082 880.748 20.514C880.04 20.946 879.248 21.162 878.372 21.162C877.52 21.162 876.77 20.976 876.122 20.604C875.486 20.232 875.006 19.758 874.682 19.182V21H873.044V7.68H874.682V12.972ZM881.378 16.032C881.378 15.288 881.228 14.64 880.928 14.088C880.628 13.536 880.22 13.116 879.704 12.828C879.2 12.54 878.642 12.396 878.03 12.396C877.43 12.396 876.872 12.546 876.356 12.846C875.852 13.134 875.444 13.56 875.132 14.124C874.832 14.676 874.682 15.318 874.682 16.05C874.682 16.794 874.832 17.448 875.132 18.012C875.444 18.564 875.852 18.99 876.356 19.29C876.872 19.578 877.43 19.722 878.03 19.722C878.642 19.722 879.2 19.578 879.704 19.29C880.22 18.99 880.628 18.564 880.928 18.012C881.228 17.448 881.378 16.788 881.378 16.032ZM894.208 15.69C894.208 16.002 894.19 16.332 894.154 16.68H886.27C886.33 17.652 886.66 18.414 887.26 18.966C887.872 19.506 888.61 19.776 889.474 19.776C890.182 19.776 890.77 19.614 891.238 19.29C891.718 18.954 892.054 18.51 892.246 17.958H894.01C893.746 18.906 893.218 19.68 892.426 20.28C891.634 20.868 890.65 21.162 889.474 21.162C888.538 21.162 887.698 20.952 886.954 20.532C886.222 20.112 885.646 19.518 885.226 18.75C884.806 17.97 884.596 17.07 884.596 16.05C884.596 15.03 884.8 14.136 885.208 13.368C885.616 12.6 886.186 12.012 886.918 11.604C887.662 11.184 888.514 10.974 889.474 10.974C890.41 10.974 891.238 11.178 891.958 11.586C892.678 11.994 893.23 12.558 893.614 13.278C894.01 13.986 894.208 14.79 894.208 15.69ZM892.516 15.348C892.516 14.724 892.378 14.19 892.102 13.746C891.826 13.29 891.448 12.948 890.968 12.72C890.5 12.48 889.978 12.36 889.402 12.36C888.574 12.36 887.866 12.624 887.278 13.152C886.702 13.68 886.372 14.412 886.288 15.348H892.516ZM898.008 7.68V21H896.37V7.68H898.008ZM905.102 21.162C904.178 21.162 903.338 20.952 902.582 20.532C901.838 20.112 901.25 19.518 900.818 18.75C900.398 17.97 900.188 17.07 900.188 16.05C900.188 15.042 900.404 14.154 900.836 13.386C901.28 12.606 901.88 12.012 902.636 11.604C903.392 11.184 904.238 10.974 905.174 10.974C906.11 10.974 906.956 11.184 907.712 11.604C908.468 12.012 909.062 12.6 909.494 13.368C909.938 14.136 910.16 15.03 910.16 16.05C910.16 17.07 909.932 17.97 909.476 18.75C909.032 19.518 908.426 20.112 907.658 20.532C906.89 20.952 906.038 21.162 905.102 21.162ZM905.102 19.722C905.69 19.722 906.242 19.584 906.758 19.308C907.274 19.032 907.688 18.618 908 18.066C908.324 17.514 908.486 16.842 908.486 16.05C908.486 15.258 908.33 14.586 908.018 14.034C907.706 13.482 907.298 13.074 906.794 12.81C906.29 12.534 905.744 12.396 905.156 12.396C904.556 12.396 904.004 12.534 903.5 12.81C903.008 13.074 902.612 13.482 902.312 14.034C902.012 14.586 901.862 15.258 901.862 16.05C901.862 16.854 902.006 17.532 902.294 18.084C902.594 18.636 902.99 19.05 903.482 19.326C903.974 19.59 904.514 19.722 905.102 19.722ZM925.454 11.136L922.376 21H920.684L918.308 13.17L915.932 21H914.24L911.144 11.136H912.818L915.086 19.416L917.534 11.136H919.208L921.602 19.434L923.834 11.136H925.454ZM933.876 12.486V18.3C933.876 18.78 933.978 19.122 934.182 19.326C934.386 19.518 934.74 19.614 935.244 19.614H936.45V21H934.974C934.062 21 933.378 20.79 932.922 20.37C932.466 19.95 932.238 19.26 932.238 18.3V12.486H930.96V11.136H932.238V8.652H933.876V11.136H936.45V12.486H933.876ZM942.737 21.162C941.813 21.162 940.973 20.952 940.217 20.532C939.473 20.112 938.885 19.518 938.453 18.75C938.033 17.97 937.823 17.07 937.823 16.05C937.823 15.042 938.039 14.154 938.471 13.386C938.915 12.606 939.515 12.012 940.271 11.604C941.027 11.184 941.873 10.974 942.809 10.974C943.745 10.974 944.591 11.184 945.347 11.604C946.103 12.012 946.697 12.6 947.129 13.368C947.573 14.136 947.795 15.03 947.795 16.05C947.795 17.07 947.567 17.97 947.111 18.75C946.667 19.518 946.061 20.112 945.293 20.532C944.525 20.952 943.673 21.162 942.737 21.162ZM942.737 19.722C943.325 19.722 943.877 19.584 944.393 19.308C944.909 19.032 945.323 18.618 945.635 18.066C945.959 17.514 946.121 16.842 946.121 16.05C946.121 15.258 945.965 14.586 945.653 14.034C945.341 13.482 944.933 13.074 944.429 12.81C943.925 12.534 943.379 12.396 942.791 12.396C942.191 12.396 941.639 12.534 941.135 12.81C940.643 13.074 940.247 13.482 939.947 14.034C939.647 14.586 939.497 15.258 939.497 16.05C939.497 16.854 939.641 17.532 939.929 18.084C940.229 18.636 940.625 19.05 941.117 19.326C941.609 19.59 942.149 19.722 942.737 19.722ZM967.887 11.136L964.809 21H963.117L960.741 13.17L958.365 21H956.673L953.577 11.136H955.251L957.519 19.416L959.967 11.136H961.641L964.035 19.434L966.267 11.136H967.887ZM973.815 21.162C972.891 21.162 972.051 20.952 971.295 20.532C970.551 20.112 969.963 19.518 969.531 18.75C969.111 17.97 968.901 17.07 968.901 16.05C968.901 15.042 969.117 14.154 969.549 13.386C969.993 12.606 970.593 12.012 971.349 11.604C972.105 11.184 972.951 10.974 973.887 10.974C974.823 10.974 975.669 11.184 976.425 11.604C977.181 12.012 977.775 12.6 978.207 13.368C978.651 14.136 978.873 15.03 978.873 16.05C978.873 17.07 978.645 17.97 978.189 18.75C977.745 19.518 977.139 20.112 976.371 20.532C975.603 20.952 974.751 21.162 973.815 21.162ZM973.815 19.722C974.403 19.722 974.955 19.584 975.471 19.308C975.987 19.032 976.401 18.618 976.713 18.066C977.037 17.514 977.199 16.842 977.199 16.05C977.199 15.258 977.043 14.586 976.731 14.034C976.419 13.482 976.011 13.074 975.507 12.81C975.003 12.534 974.457 12.396 973.869 12.396C973.269 12.396 972.717 12.534 972.213 12.81C971.721 13.074 971.325 13.482 971.025 14.034C970.725 14.586 970.575 15.258 970.575 16.05C970.575 16.854 970.719 17.532 971.007 18.084C971.307 18.636 971.703 19.05 972.195 19.326C972.687 19.59 973.227 19.722 973.815 19.722ZM982.665 12.738C982.953 12.174 983.361 11.736 983.889 11.424C984.429 11.112 985.083 10.956 985.851 10.956V12.648H985.419C983.583 12.648 982.665 13.644 982.665 15.636V21H981.027V11.136H982.665V12.738ZM993.249 21L989.379 16.644V21H987.741V7.68H989.379V15.51L993.177 11.136H995.463L990.819 16.05L995.481 21H993.249ZM1003.8 12.486V18.3C1003.8 18.78 1003.9 19.122 1004.11 19.326C1004.31 19.518 1004.67 19.614 1005.17 19.614H1006.38V21H1004.9C1003.99 21 1003.3 20.79 1002.85 20.37C1002.39 19.95 1002.16 19.26 1002.16 18.3V12.486H1000.89V11.136H1002.16V8.652H1003.8V11.136H1006.38V12.486H1003.8ZM1012.66 21.162C1011.74 21.162 1010.9 20.952 1010.14 20.532C1009.4 20.112 1008.81 19.518 1008.38 18.75C1007.96 17.97 1007.75 17.07 1007.75 16.05C1007.75 15.042 1007.96 14.154 1008.4 13.386C1008.84 12.606 1009.44 12.012 1010.2 11.604C1010.95 11.184 1011.8 10.974 1012.73 10.974C1013.67 10.974 1014.52 11.184 1015.27 11.604C1016.03 12.012 1016.62 12.6 1017.05 13.368C1017.5 14.136 1017.72 15.03 1017.72 16.05C1017.72 17.07 1017.49 17.97 1017.04 18.75C1016.59 19.518 1015.99 20.112 1015.22 20.532C1014.45 20.952 1013.6 21.162 1012.66 21.162ZM1012.66 19.722C1013.25 19.722 1013.8 19.584 1014.32 19.308C1014.83 19.032 1015.25 18.618 1015.56 18.066C1015.88 17.514 1016.05 16.842 1016.05 16.05C1016.05 15.258 1015.89 14.586 1015.58 14.034C1015.27 13.482 1014.86 13.074 1014.35 12.81C1013.85 12.534 1013.3 12.396 1012.72 12.396C1012.12 12.396 1011.56 12.534 1011.06 12.81C1010.57 13.074 1010.17 13.482 1009.87 14.034C1009.57 14.586 1009.42 15.258 1009.42 16.05C1009.42 16.854 1009.57 17.532 1009.85 18.084C1010.15 18.636 1010.55 19.05 1011.04 19.326C1011.53 19.59 1012.07 19.722 1012.66 19.722ZM1023.94 10.974C1024.79 10.974 1025.54 11.16 1026.17 11.532C1026.82 11.904 1027.3 12.372 1027.61 12.936V11.136H1029.27V21.216C1029.27 22.116 1029.08 22.914 1028.69 23.61C1028.31 24.318 1027.76 24.87 1027.04 25.266C1026.33 25.662 1025.5 25.86 1024.55 25.86C1023.26 25.86 1022.18 25.554 1021.31 24.942C1020.45 24.33 1019.94 23.496 1019.78 22.44H1021.4C1021.58 23.04 1021.96 23.52 1022.52 23.88C1023.08 24.252 1023.76 24.438 1024.55 24.438C1025.45 24.438 1026.19 24.156 1026.75 23.592C1027.33 23.028 1027.61 22.236 1027.61 21.216V19.146C1027.29 19.722 1026.81 20.202 1026.17 20.586C1025.54 20.97 1024.79 21.162 1023.94 21.162C1023.07 21.162 1022.27 20.946 1021.55 20.514C1020.84 20.082 1020.28 19.476 1019.87 18.696C1019.47 17.916 1019.26 17.028 1019.26 16.032C1019.26 15.024 1019.47 14.142 1019.87 13.386C1020.28 12.618 1020.84 12.024 1021.55 11.604C1022.27 11.184 1023.07 10.974 1023.94 10.974ZM1027.61 16.05C1027.61 15.306 1027.46 14.658 1027.16 14.106C1026.86 13.554 1026.46 13.134 1025.94 12.846C1025.44 12.546 1024.88 12.396 1024.27 12.396C1023.65 12.396 1023.1 12.54 1022.59 12.828C1022.09 13.116 1021.69 13.536 1021.39 14.088C1021.09 14.64 1020.94 15.288 1020.94 16.032C1020.94 16.788 1021.09 17.448 1021.39 18.012C1021.69 18.564 1022.09 18.99 1022.59 19.29C1023.1 19.578 1023.65 19.722 1024.27 19.722C1024.88 19.722 1025.44 19.578 1025.94 19.29C1026.46 18.99 1026.86 18.564 1027.16 18.012C1027.46 17.448 1027.61 16.794 1027.61 16.05ZM1041.04 15.69C1041.04 16.002 1041.02 16.332 1040.98 16.68H1033.1C1033.16 17.652 1033.49 18.414 1034.09 18.966C1034.7 19.506 1035.44 19.776 1036.3 19.776C1037.01 19.776 1037.6 19.614 1038.07 19.29C1038.55 18.954 1038.88 18.51 1039.08 17.958H1040.84C1040.58 18.906 1040.05 19.68 1039.26 20.28C1038.46 20.868 1037.48 21.162 1036.3 21.162C1035.37 21.162 1034.53 20.952 1033.78 20.532C1033.05 20.112 1032.48 19.518 1032.06 18.75C1031.64 17.97 1031.43 17.07 1031.43 16.05C1031.43 15.03 1031.63 14.136 1032.04 13.368C1032.45 12.6 1033.02 12.012 1033.75 11.604C1034.49 11.184 1035.34 10.974 1036.3 10.974C1037.24 10.974 1038.07 11.178 1038.79 11.586C1039.51 11.994 1040.06 12.558 1040.44 13.278C1040.84 13.986 1041.04 14.79 1041.04 15.69ZM1039.35 15.348C1039.35 14.724 1039.21 14.19 1038.93 13.746C1038.66 13.29 1038.28 12.948 1037.8 12.72C1037.33 12.48 1036.81 12.36 1036.23 12.36C1035.4 12.36 1034.7 12.624 1034.11 13.152C1033.53 13.68 1033.2 14.412 1033.12 15.348H1039.35ZM1045.2 12.486V18.3C1045.2 18.78 1045.3 19.122 1045.5 19.326C1045.71 19.518 1046.06 19.614 1046.57 19.614H1047.77V21H1046.3C1045.38 21 1044.7 20.79 1044.24 20.37C1043.79 19.95 1043.56 19.26 1043.56 18.3V12.486H1042.28V11.136H1043.56V8.652H1045.2V11.136H1047.77V12.486H1045.2ZM1054.65 10.956C1055.4 10.956 1056.07 11.118 1056.67 11.442C1057.27 11.754 1057.74 12.228 1058.07 12.864C1058.42 13.5 1058.6 14.274 1058.6 15.186V21H1056.98V15.42C1056.98 14.436 1056.73 13.686 1056.24 13.17C1055.75 12.642 1055.07 12.378 1054.22 12.378C1053.36 12.378 1052.67 12.648 1052.15 13.188C1051.65 13.728 1051.4 14.514 1051.4 15.546V21H1049.76V7.68H1051.4V12.54C1051.72 12.036 1052.16 11.646 1052.73 11.37C1053.3 11.094 1053.95 10.956 1054.65 10.956ZM1070.27 15.69C1070.27 16.002 1070.25 16.332 1070.22 16.68H1062.33C1062.39 17.652 1062.72 18.414 1063.32 18.966C1063.93 19.506 1064.67 19.776 1065.54 19.776C1066.24 19.776 1066.83 19.614 1067.3 19.29C1067.78 18.954 1068.12 18.51 1068.31 17.958H1070.07C1069.81 18.906 1069.28 19.68 1068.49 20.28C1067.7 20.868 1066.71 21.162 1065.54 21.162C1064.6 21.162 1063.76 20.952 1063.02 20.532C1062.28 20.112 1061.71 19.518 1061.29 18.75C1060.87 17.97 1060.66 17.07 1060.66 16.05C1060.66 15.03 1060.86 14.136 1061.27 13.368C1061.68 12.6 1062.25 12.012 1062.98 11.604C1063.72 11.184 1064.58 10.974 1065.54 10.974C1066.47 10.974 1067.3 11.178 1068.02 11.586C1068.74 11.994 1069.29 12.558 1069.68 13.278C1070.07 13.986 1070.27 14.79 1070.27 15.69ZM1068.58 15.348C1068.58 14.724 1068.44 14.19 1068.16 13.746C1067.89 13.29 1067.51 12.948 1067.03 12.72C1066.56 12.48 1066.04 12.36 1065.46 12.36C1064.64 12.36 1063.93 12.624 1063.34 13.152C1062.76 13.68 1062.43 14.412 1062.35 15.348H1068.58ZM1074.07 12.738C1074.36 12.174 1074.77 11.736 1075.29 11.424C1075.83 11.112 1076.49 10.956 1077.26 10.956V12.648H1076.82C1074.99 12.648 1074.07 13.644 1074.07 15.636V21H1072.43V11.136H1074.07V12.738ZM1085.94 12.486V18.3C1085.94 18.78 1086.05 19.122 1086.25 19.326C1086.45 19.518 1086.81 19.614 1087.31 19.614H1088.52V21H1087.04C1086.13 21 1085.45 20.79 1084.99 20.37C1084.53 19.95 1084.31 19.26 1084.31 18.3V12.486H1083.03V11.136H1084.31V8.652H1085.94V11.136H1088.52V12.486H1085.94ZM1094.81 21.162C1093.88 21.162 1093.04 20.952 1092.29 20.532C1091.54 20.112 1090.95 19.518 1090.52 18.75C1090.1 17.97 1089.89 17.07 1089.89 16.05C1089.89 15.042 1090.11 14.154 1090.54 13.386C1090.98 12.606 1091.58 12.012 1092.34 11.604C1093.1 11.184 1093.94 10.974 1094.88 10.974C1095.81 10.974 1096.66 11.184 1097.42 11.604C1098.17 12.012 1098.77 12.6 1099.2 13.368C1099.64 14.136 1099.86 15.03 1099.86 16.05C1099.86 17.07 1099.64 17.97 1099.18 18.75C1098.74 19.518 1098.13 20.112 1097.36 20.532C1096.59 20.952 1095.74 21.162 1094.81 21.162ZM1094.81 19.722C1095.39 19.722 1095.95 19.584 1096.46 19.308C1096.98 19.032 1097.39 18.618 1097.7 18.066C1098.03 17.514 1098.19 16.842 1098.19 16.05C1098.19 15.258 1098.03 14.586 1097.72 14.034C1097.41 13.482 1097 13.074 1096.5 12.81C1095.99 12.534 1095.45 12.396 1094.86 12.396C1094.26 12.396 1093.71 12.534 1093.2 12.81C1092.71 13.074 1092.32 13.482 1092.02 14.034C1091.72 14.586 1091.57 15.258 1091.57 16.05C1091.57 16.854 1091.71 17.532 1092 18.084C1092.3 18.636 1092.69 19.05 1093.19 19.326C1093.68 19.59 1094.22 19.722 1094.81 19.722ZM1108.45 12.972C1108.79 12.384 1109.28 11.904 1109.93 11.532C1110.58 11.16 1111.32 10.974 1112.14 10.974C1113.03 10.974 1113.83 11.184 1114.54 11.604C1115.25 12.024 1115.8 12.618 1116.21 13.386C1116.62 14.142 1116.82 15.024 1116.82 16.032C1116.82 17.028 1116.62 17.916 1116.21 18.696C1115.8 19.476 1115.24 20.082 1114.52 20.514C1113.81 20.946 1113.02 21.162 1112.14 21.162C1111.29 21.162 1110.54 20.976 1109.89 20.604C1109.26 20.232 1108.78 19.758 1108.45 19.182V21H1106.82V7.68H1108.45V12.972ZM1115.15 16.032C1115.15 15.288 1115 14.64 1114.7 14.088C1114.4 13.536 1113.99 13.116 1113.48 12.828C1112.97 12.54 1112.41 12.396 1111.8 12.396C1111.2 12.396 1110.64 12.546 1110.13 12.846C1109.62 13.134 1109.22 13.56 1108.9 14.124C1108.6 14.676 1108.45 15.318 1108.45 16.05C1108.45 16.794 1108.6 17.448 1108.9 18.012C1109.22 18.564 1109.62 18.99 1110.13 19.29C1110.64 19.578 1111.2 19.722 1111.8 19.722C1112.41 19.722 1112.97 19.578 1113.48 19.29C1113.99 18.99 1114.4 18.564 1114.7 18.012C1115 17.448 1115.15 16.788 1115.15 16.032ZM1127.73 11.136V21H1126.09V19.542C1125.78 20.046 1125.34 20.442 1124.78 20.73C1124.22 21.006 1123.61 21.144 1122.94 21.144C1122.17 21.144 1121.48 20.988 1120.87 20.676C1120.26 20.352 1119.77 19.872 1119.41 19.236C1119.06 18.6 1118.89 17.826 1118.89 16.914V11.136H1120.51V16.698C1120.51 17.67 1120.76 18.42 1121.25 18.948C1121.74 19.464 1122.41 19.722 1123.26 19.722C1124.14 19.722 1124.83 19.452 1125.33 18.912C1125.84 18.372 1126.09 17.586 1126.09 16.554V11.136H1127.73ZM1131.34 9.534C1131.03 9.534 1130.76 9.426 1130.55 9.21C1130.33 8.994 1130.22 8.73 1130.22 8.418C1130.22 8.106 1130.33 7.842 1130.55 7.626C1130.76 7.41 1131.03 7.302 1131.34 7.302C1131.64 7.302 1131.89 7.41 1132.1 7.626C1132.31 7.842 1132.42 8.106 1132.42 8.418C1132.42 8.73 1132.31 8.994 1132.1 9.21C1131.89 9.426 1131.64 9.534 1131.34 9.534ZM1132.13 11.136V21H1130.49V11.136H1132.13ZM1136.56 7.68V21H1134.92V7.68H1136.56ZM1138.74 16.032C1138.74 15.024 1138.94 14.142 1139.35 13.386C1139.76 12.618 1140.32 12.024 1141.03 11.604C1141.75 11.184 1142.55 10.974 1143.44 10.974C1144.21 10.974 1144.92 11.154 1145.58 11.514C1146.24 11.862 1146.74 12.324 1147.09 12.9V7.68H1148.75V21H1147.09V19.146C1146.77 19.734 1146.29 20.22 1145.65 20.604C1145.02 20.976 1144.27 21.162 1143.42 21.162C1142.54 21.162 1141.75 20.946 1141.03 20.514C1140.32 20.082 1139.76 19.476 1139.35 18.696C1138.94 17.916 1138.74 17.028 1138.74 16.032ZM1147.09 16.05C1147.09 15.306 1146.94 14.658 1146.64 14.106C1146.34 13.554 1145.93 13.134 1145.42 12.846C1144.91 12.546 1144.36 12.396 1143.74 12.396C1143.13 12.396 1142.57 12.54 1142.07 12.828C1141.57 13.116 1141.16 13.536 1140.86 14.088C1140.56 14.64 1140.41 15.288 1140.41 16.032C1140.41 16.788 1140.56 17.448 1140.86 18.012C1141.16 18.564 1141.57 18.99 1142.07 19.29C1142.57 19.578 1143.13 19.722 1143.74 19.722C1144.36 19.722 1144.91 19.578 1145.42 19.29C1145.93 18.99 1146.34 18.564 1146.64 18.012C1146.94 17.448 1147.09 16.794 1147.09 16.05ZM1164.81 11.136L1158.87 25.644H1157.18L1159.12 20.892L1155.15 11.136H1156.96L1160.06 19.128L1163.12 11.136H1164.81ZM1170.76 21.162C1169.84 21.162 1169 20.952 1168.24 20.532C1167.5 20.112 1166.91 19.518 1166.48 18.75C1166.06 17.97 1165.85 17.07 1165.85 16.05C1165.85 15.042 1166.06 14.154 1166.49 13.386C1166.94 12.606 1167.54 12.012 1168.29 11.604C1169.05 11.184 1169.9 10.974 1170.83 10.974C1171.77 10.974 1172.61 11.184 1173.37 11.604C1174.13 12.012 1174.72 12.6 1175.15 13.368C1175.6 14.136 1175.82 15.03 1175.82 16.05C1175.82 17.07 1175.59 17.97 1175.13 18.75C1174.69 19.518 1174.08 20.112 1173.32 20.532C1172.55 20.952 1171.7 21.162 1170.76 21.162ZM1170.76 19.722C1171.35 19.722 1171.9 19.584 1172.42 19.308C1172.93 19.032 1173.35 18.618 1173.66 18.066C1173.98 17.514 1174.14 16.842 1174.14 16.05C1174.14 15.258 1173.99 14.586 1173.68 14.034C1173.36 13.482 1172.96 13.074 1172.45 12.81C1171.95 12.534 1171.4 12.396 1170.81 12.396C1170.21 12.396 1169.66 12.534 1169.16 12.81C1168.67 13.074 1168.27 13.482 1167.97 14.034C1167.67 14.586 1167.52 15.258 1167.52 16.05C1167.52 16.854 1167.66 17.532 1167.95 18.084C1168.25 18.636 1168.65 19.05 1169.14 19.326C1169.63 19.59 1170.17 19.722 1170.76 19.722ZM1186.72 11.136V21H1185.08V19.542C1184.77 20.046 1184.33 20.442 1183.77 20.73C1183.22 21.006 1182.6 21.144 1181.93 21.144C1181.16 21.144 1180.47 20.988 1179.86 20.676C1179.25 20.352 1178.76 19.872 1178.4 19.236C1178.06 18.6 1177.88 17.826 1177.88 16.914V11.136H1179.5V16.698C1179.5 17.67 1179.75 18.42 1180.24 18.948C1180.73 19.464 1181.4 19.722 1182.26 19.722C1183.13 19.722 1183.82 19.452 1184.33 18.912C1184.83 18.372 1185.08 17.586 1185.08 16.554V11.136H1186.72ZM1191.12 12.738C1191.41 12.174 1191.82 11.736 1192.35 11.424C1192.89 11.112 1193.54 10.956 1194.31 10.956V12.648H1193.88C1192.04 12.648 1191.12 13.644 1191.12 15.636V21H1189.49V11.136H1191.12V12.738ZM768.774 45.032C768.774 44.024 768.978 43.142 769.386 42.386C769.794 41.618 770.352 41.024 771.06 40.604C771.78 40.184 772.578 39.974 773.454 39.974C774.318 39.974 775.068 40.16 775.704 40.532C776.34 40.904 776.814 41.372 777.126 41.936V40.136H778.782V50H777.126V48.164C776.802 48.74 776.316 49.22 775.668 49.604C775.032 49.976 774.288 50.162 773.436 50.162C772.56 50.162 771.768 49.946 771.06 49.514C770.352 49.082 769.794 48.476 769.386 47.696C768.978 46.916 768.774 46.028 768.774 45.032ZM777.126 45.05C777.126 44.306 776.976 43.658 776.676 43.106C776.376 42.554 775.968 42.134 775.452 41.846C774.948 41.546 774.39 41.396 773.778 41.396C773.166 41.396 772.608 41.54 772.104 41.828C771.6 42.116 771.198 42.536 770.898 43.088C770.598 43.64 770.448 44.288 770.448 45.032C770.448 45.788 770.598 46.448 770.898 47.012C771.198 47.564 771.6 47.99 772.104 48.29C772.608 48.578 773.166 48.722 773.778 48.722C774.39 48.722 774.948 48.578 775.452 48.29C775.968 47.99 776.376 47.564 776.676 47.012C776.976 46.448 777.126 45.794 777.126 45.05ZM793.412 39.956C794.18 39.956 794.864 40.118 795.464 40.442C796.064 40.754 796.538 41.228 796.886 41.864C797.234 42.5 797.408 43.274 797.408 44.186V50H795.788V44.42C795.788 43.436 795.542 42.686 795.05 42.17C794.57 41.642 793.916 41.378 793.088 41.378C792.236 41.378 791.558 41.654 791.054 42.206C790.55 42.746 790.298 43.532 790.298 44.564V50H788.678V44.42C788.678 43.436 788.432 42.686 787.94 42.17C787.46 41.642 786.806 41.378 785.978 41.378C785.126 41.378 784.448 41.654 783.944 42.206C783.44 42.746 783.188 43.532 783.188 44.564V50H781.55V40.136H783.188V41.558C783.512 41.042 783.944 40.646 784.484 40.37C785.036 40.094 785.642 39.956 786.302 39.956C787.13 39.956 787.862 40.142 788.498 40.514C789.134 40.886 789.608 41.432 789.92 42.152C790.196 41.456 790.652 40.916 791.288 40.532C791.924 40.148 792.632 39.956 793.412 39.956ZM799.483 45.032C799.483 44.024 799.687 43.142 800.095 42.386C800.503 41.618 801.061 41.024 801.769 40.604C802.489 40.184 803.287 39.974 804.163 39.974C805.027 39.974 805.777 40.16 806.413 40.532C807.049 40.904 807.523 41.372 807.835 41.936V40.136H809.491V50H807.835V48.164C807.511 48.74 807.025 49.22 806.377 49.604C805.741 49.976 804.997 50.162 804.145 50.162C803.269 50.162 802.477 49.946 801.769 49.514C801.061 49.082 800.503 48.476 800.095 47.696C799.687 46.916 799.483 46.028 799.483 45.032ZM807.835 45.05C807.835 44.306 807.685 43.658 807.385 43.106C807.085 42.554 806.677 42.134 806.161 41.846C805.657 41.546 805.099 41.396 804.487 41.396C803.875 41.396 803.317 41.54 802.813 41.828C802.309 42.116 801.907 42.536 801.607 43.088C801.307 43.64 801.157 44.288 801.157 45.032C801.157 45.788 801.307 46.448 801.607 47.012C801.907 47.564 802.309 47.99 802.813 48.29C803.317 48.578 803.875 48.722 804.487 48.722C805.099 48.722 805.657 48.578 806.161 48.29C806.677 47.99 807.085 47.564 807.385 47.012C807.685 46.448 807.835 45.794 807.835 45.05ZM813.483 48.65H818.325V50H811.611V48.65L816.399 41.468H811.647V40.136H818.289V41.468L813.483 48.65ZM821.296 38.534C820.984 38.534 820.72 38.426 820.504 38.21C820.288 37.994 820.18 37.73 820.18 37.418C820.18 37.106 820.288 36.842 820.504 36.626C820.72 36.41 820.984 36.302 821.296 36.302C821.596 36.302 821.848 36.41 822.052 36.626C822.268 36.842 822.376 37.106 822.376 37.418C822.376 37.73 822.268 37.994 822.052 38.21C821.848 38.426 821.596 38.534 821.296 38.534ZM822.088 40.136V50H820.45V40.136H822.088ZM829.686 39.956C830.886 39.956 831.858 40.322 832.602 41.054C833.346 41.774 833.718 42.818 833.718 44.186V50H832.098V44.42C832.098 43.436 831.852 42.686 831.36 42.17C830.868 41.642 830.196 41.378 829.344 41.378C828.48 41.378 827.79 41.648 827.274 42.188C826.77 42.728 826.518 43.514 826.518 44.546V50H824.88V40.136H826.518V41.54C826.842 41.036 827.28 40.646 827.832 40.37C828.396 40.094 829.014 39.956 829.686 39.956ZM840.462 39.974C841.314 39.974 842.058 40.16 842.694 40.532C843.342 40.904 843.822 41.372 844.134 41.936V40.136H845.79V50.216C845.79 51.116 845.598 51.914 845.214 52.61C844.83 53.318 844.278 53.87 843.558 54.266C842.85 54.662 842.022 54.86 841.074 54.86C839.778 54.86 838.698 54.554 837.834 53.942C836.97 53.33 836.46 52.496 836.304 51.44H837.924C838.104 52.04 838.476 52.52 839.04 52.88C839.604 53.252 840.282 53.438 841.074 53.438C841.974 53.438 842.706 53.156 843.27 52.592C843.846 52.028 844.134 51.236 844.134 50.216V48.146C843.81 48.722 843.33 49.202 842.694 49.586C842.058 49.97 841.314 50.162 840.462 50.162C839.586 50.162 838.788 49.946 838.068 49.514C837.36 49.082 836.802 48.476 836.394 47.696C835.986 46.916 835.782 46.028 835.782 45.032C835.782 44.024 835.986 43.142 836.394 42.386C836.802 41.618 837.36 41.024 838.068 40.604C838.788 40.184 839.586 39.974 840.462 39.974ZM844.134 45.05C844.134 44.306 843.984 43.658 843.684 43.106C843.384 42.554 842.976 42.134 842.46 41.846C841.956 41.546 841.398 41.396 840.786 41.396C840.174 41.396 839.616 41.54 839.112 41.828C838.608 42.116 838.206 42.536 837.906 43.088C837.606 43.64 837.456 44.288 837.456 45.032C837.456 45.788 837.606 46.448 837.906 47.012C838.206 47.564 838.608 47.99 839.112 48.29C839.616 48.578 840.174 48.722 840.786 48.722C841.398 48.722 841.956 48.578 842.46 48.29C842.976 47.99 843.384 47.564 843.684 47.012C843.984 46.448 844.134 45.794 844.134 45.05ZM854.203 38.534C853.891 38.534 853.627 38.426 853.411 38.21C853.195 37.994 853.087 37.73 853.087 37.418C853.087 37.106 853.195 36.842 853.411 36.626C853.627 36.41 853.891 36.302 854.203 36.302C854.503 36.302 854.755 36.41 854.959 36.626C855.175 36.842 855.283 37.106 855.283 37.418C855.283 37.73 855.175 37.994 854.959 38.21C854.755 38.426 854.503 38.534 854.203 38.534ZM854.995 40.136V50H853.357V40.136H854.995ZM862.592 39.956C863.792 39.956 864.764 40.322 865.508 41.054C866.252 41.774 866.624 42.818 866.624 44.186V50H865.004V44.42C865.004 43.436 864.758 42.686 864.266 42.17C863.774 41.642 863.102 41.378 862.25 41.378C861.386 41.378 860.696 41.648 860.18 42.188C859.676 42.728 859.424 43.514 859.424 44.546V50H857.786V40.136H859.424V41.54C859.748 41.036 860.186 40.646 860.738 40.37C861.302 40.094 861.92 39.956 862.592 39.956ZM871.298 41.486V47.3C871.298 47.78 871.4 48.122 871.604 48.326C871.808 48.518 872.162 48.614 872.666 48.614H873.872V50H872.396C871.484 50 870.8 49.79 870.344 49.37C869.888 48.95 869.66 48.26 869.66 47.3V41.486H868.382V40.136H869.66V37.652H871.298V40.136H873.872V41.486H871.298ZM884.857 44.69C884.857 45.002 884.839 45.332 884.803 45.68H876.919C876.979 46.652 877.309 47.414 877.909 47.966C878.521 48.506 879.259 48.776 880.123 48.776C880.831 48.776 881.419 48.614 881.887 48.29C882.367 47.954 882.703 47.51 882.895 46.958H884.659C884.395 47.906 883.867 48.68 883.075 49.28C882.283 49.868 881.299 50.162 880.123 50.162C879.187 50.162 878.347 49.952 877.603 49.532C876.871 49.112 876.295 48.518 875.875 47.75C875.455 46.97 875.245 46.07 875.245 45.05C875.245 44.03 875.449 43.136 875.857 42.368C876.265 41.6 876.835 41.012 877.567 40.604C878.311 40.184 879.163 39.974 880.123 39.974C881.059 39.974 881.887 40.178 882.607 40.586C883.327 40.994 883.879 41.558 884.263 42.278C884.659 42.986 884.857 43.79 884.857 44.69ZM883.165 44.348C883.165 43.724 883.027 43.19 882.751 42.746C882.475 42.29 882.097 41.948 881.617 41.72C881.149 41.48 880.627 41.36 880.051 41.36C879.223 41.36 878.515 41.624 877.927 42.152C877.351 42.68 877.021 43.412 876.937 44.348H883.165ZM888.657 41.738C888.945 41.174 889.353 40.736 889.881 40.424C890.421 40.112 891.075 39.956 891.843 39.956V41.648H891.411C889.575 41.648 888.657 42.644 888.657 44.636V50H887.019V40.136H888.657V41.738ZM894.58 38.534C894.268 38.534 894.004 38.426 893.788 38.21C893.572 37.994 893.464 37.73 893.464 37.418C893.464 37.106 893.572 36.842 893.788 36.626C894.004 36.41 894.268 36.302 894.58 36.302C894.88 36.302 895.132 36.41 895.336 36.626C895.552 36.842 895.66 37.106 895.66 37.418C895.66 37.73 895.552 37.994 895.336 38.21C895.132 38.426 894.88 38.534 894.58 38.534ZM895.372 40.136V50H893.734V40.136H895.372ZM902.465 50.162C901.541 50.162 900.701 49.952 899.945 49.532C899.201 49.112 898.613 48.518 898.181 47.75C897.761 46.97 897.551 46.07 897.551 45.05C897.551 44.042 897.767 43.154 898.199 42.386C898.643 41.606 899.243 41.012 899.999 40.604C900.755 40.184 901.601 39.974 902.537 39.974C903.473 39.974 904.319 40.184 905.075 40.604C905.831 41.012 906.425 41.6 906.857 42.368C907.301 43.136 907.523 44.03 907.523 45.05C907.523 46.07 907.295 46.97 906.839 47.75C906.395 48.518 905.789 49.112 905.021 49.532C904.253 49.952 903.401 50.162 902.465 50.162ZM902.465 48.722C903.053 48.722 903.605 48.584 904.121 48.308C904.637 48.032 905.051 47.618 905.363 47.066C905.687 46.514 905.849 45.842 905.849 45.05C905.849 44.258 905.693 43.586 905.381 43.034C905.069 42.482 904.661 42.074 904.157 41.81C903.653 41.534 903.107 41.396 902.519 41.396C901.919 41.396 901.367 41.534 900.863 41.81C900.371 42.074 899.975 42.482 899.675 43.034C899.375 43.586 899.225 44.258 899.225 45.05C899.225 45.854 899.369 46.532 899.657 47.084C899.957 47.636 900.353 48.05 900.845 48.326C901.337 48.59 901.877 48.722 902.465 48.722ZM911.315 41.738C911.603 41.174 912.011 40.736 912.539 40.424C913.079 40.112 913.733 39.956 914.501 39.956V41.648H914.069C912.233 41.648 911.315 42.644 911.315 44.636V50H909.677V40.136H911.315V41.738Z" fill="#D9D9D9"/>
<rect width="142" height="49" transform="translate(768 78)" fill="white"/>
<path d="M800.518 102.114C800.518 101.162 800.737 100.308 801.176 99.552C801.624 98.796 802.226 98.208 802.982 97.788C803.747 97.3587 804.583 97.144 805.488 97.144C806.524 97.144 807.443 97.4007 808.246 97.914C809.058 98.418 809.646 99.1367 810.01 100.07H808.092C807.84 99.5567 807.49 99.174 807.042 98.922C806.594 98.67 806.076 98.544 805.488 98.544C804.844 98.544 804.27 98.6887 803.766 98.978C803.262 99.2673 802.865 99.6827 802.576 100.224C802.296 100.765 802.156 101.395 802.156 102.114C802.156 102.833 802.296 103.463 802.576 104.004C802.865 104.545 803.262 104.965 803.766 105.264C804.27 105.553 804.844 105.698 805.488 105.698C806.076 105.698 806.594 105.572 807.042 105.32C807.49 105.068 807.84 104.685 808.092 104.172H810.01C809.646 105.105 809.058 105.824 808.246 106.328C807.443 106.832 806.524 107.084 805.488 107.084C804.573 107.084 803.738 106.874 802.982 106.454C802.226 106.025 801.624 105.432 801.176 104.676C800.737 103.92 800.518 103.066 800.518 102.114ZM815.224 107.126C814.496 107.126 813.838 106.963 813.25 106.636C812.662 106.3 812.2 105.833 811.864 105.236C811.528 104.629 811.36 103.929 811.36 103.136C811.36 102.352 811.533 101.657 811.878 101.05C812.223 100.443 812.695 99.9767 813.292 99.65C813.889 99.3233 814.557 99.16 815.294 99.16C816.031 99.16 816.699 99.3233 817.296 99.65C817.893 99.9767 818.365 100.443 818.71 101.05C819.055 101.657 819.228 102.352 819.228 103.136C819.228 103.92 819.051 104.615 818.696 105.222C818.341 105.829 817.856 106.3 817.24 106.636C816.633 106.963 815.961 107.126 815.224 107.126ZM815.224 105.74C815.635 105.74 816.017 105.642 816.372 105.446C816.736 105.25 817.03 104.956 817.254 104.564C817.478 104.172 817.59 103.696 817.59 103.136C817.59 102.576 817.483 102.105 817.268 101.722C817.053 101.33 816.769 101.036 816.414 100.84C816.059 100.644 815.677 100.546 815.266 100.546C814.855 100.546 814.473 100.644 814.118 100.84C813.773 101.036 813.497 101.33 813.292 101.722C813.087 102.105 812.984 102.576 812.984 103.136C812.984 103.967 813.194 104.611 813.614 105.068C814.043 105.516 814.58 105.74 815.224 105.74ZM824.698 99.16C825.305 99.16 825.846 99.286 826.322 99.538C826.807 99.79 827.185 100.163 827.456 100.658C827.727 101.153 827.862 101.75 827.862 102.45V107H826.28V102.688C826.28 101.997 826.107 101.47 825.762 101.106C825.417 100.733 824.945 100.546 824.348 100.546C823.751 100.546 823.275 100.733 822.92 101.106C822.575 101.47 822.402 101.997 822.402 102.688V107H820.806V99.286H822.402V100.168C822.663 99.8507 822.995 99.6033 823.396 99.426C823.807 99.2487 824.241 99.16 824.698 99.16ZM831.76 100.588V104.858C831.76 105.147 831.825 105.357 831.956 105.488C832.096 105.609 832.329 105.67 832.656 105.67H833.636V107H832.376C831.657 107 831.106 106.832 830.724 106.496C830.341 106.16 830.15 105.614 830.15 104.858V100.588H829.24V99.286H830.15V97.368H831.76V99.286H833.636V100.588H831.76ZM834.575 103.108C834.575 102.333 834.733 101.647 835.051 101.05C835.377 100.453 835.816 99.9907 836.367 99.664C836.927 99.328 837.543 99.16 838.215 99.16C838.821 99.16 839.349 99.2813 839.797 99.524C840.254 99.7573 840.618 100.051 840.889 100.406V99.286H842.499V107H840.889V105.852C840.618 106.216 840.249 106.519 839.783 106.762C839.316 107.005 838.784 107.126 838.187 107.126C837.524 107.126 836.917 106.958 836.367 106.622C835.816 106.277 835.377 105.801 835.051 105.194C834.733 104.578 834.575 103.883 834.575 103.108ZM840.889 103.136C840.889 102.604 840.777 102.142 840.553 101.75C840.338 101.358 840.053 101.059 839.699 100.854C839.344 100.649 838.961 100.546 838.551 100.546C838.14 100.546 837.757 100.649 837.403 100.854C837.048 101.05 836.759 101.344 836.535 101.736C836.32 102.119 836.213 102.576 836.213 103.108C836.213 103.64 836.32 104.107 836.535 104.508C836.759 104.909 837.048 105.217 837.403 105.432C837.767 105.637 838.149 105.74 838.551 105.74C838.961 105.74 839.344 105.637 839.699 105.432C840.053 105.227 840.338 104.928 840.553 104.536C840.777 104.135 840.889 103.668 840.889 103.136ZM844.063 103.136C844.063 102.343 844.222 101.647 844.539 101.05C844.866 100.443 845.314 99.9767 845.883 99.65C846.452 99.3233 847.106 99.16 847.843 99.16C848.776 99.16 849.546 99.384 850.153 99.832C850.769 100.271 851.184 100.901 851.399 101.722H849.677C849.537 101.339 849.313 101.041 849.005 100.826C848.697 100.611 848.31 100.504 847.843 100.504C847.19 100.504 846.667 100.737 846.275 101.204C845.892 101.661 845.701 102.305 845.701 103.136C845.701 103.967 845.892 104.615 846.275 105.082C846.667 105.549 847.19 105.782 847.843 105.782C848.767 105.782 849.378 105.376 849.677 104.564H851.399C851.175 105.348 850.755 105.973 850.139 106.44C849.523 106.897 848.758 107.126 847.843 107.126C847.106 107.126 846.452 106.963 845.883 106.636C845.314 106.3 844.866 105.833 844.539 105.236C844.222 104.629 844.063 103.929 844.063 103.136ZM854.851 100.588V104.858C854.851 105.147 854.917 105.357 855.047 105.488C855.187 105.609 855.421 105.67 855.747 105.67H856.727V107H855.467C854.749 107 854.198 106.832 853.815 106.496C853.433 106.16 853.241 105.614 853.241 104.858V100.588H852.331V99.286H853.241V97.368H854.851V99.286H856.727V100.588H854.851ZM863.417 97.27V103.472C863.417 104.209 863.608 104.765 863.991 105.138C864.383 105.511 864.924 105.698 865.615 105.698C866.315 105.698 866.856 105.511 867.239 105.138C867.631 104.765 867.827 104.209 867.827 103.472V97.27H869.423V103.444C869.423 104.237 869.25 104.909 868.905 105.46C868.56 106.011 868.098 106.421 867.519 106.692C866.94 106.963 866.301 107.098 865.601 107.098C864.901 107.098 864.262 106.963 863.683 106.692C863.114 106.421 862.661 106.011 862.325 105.46C861.989 104.909 861.821 104.237 861.821 103.444V97.27H863.417ZM874.301 107.126C873.695 107.126 873.149 107.019 872.663 106.804C872.187 106.58 871.809 106.281 871.529 105.908C871.249 105.525 871.1 105.101 871.081 104.634H872.733C872.761 104.961 872.915 105.236 873.195 105.46C873.485 105.675 873.844 105.782 874.273 105.782C874.721 105.782 875.067 105.698 875.309 105.53C875.561 105.353 875.687 105.129 875.687 104.858C875.687 104.569 875.547 104.354 875.267 104.214C874.997 104.074 874.563 103.92 873.965 103.752C873.387 103.593 872.915 103.439 872.551 103.29C872.187 103.141 871.87 102.912 871.599 102.604C871.338 102.296 871.207 101.89 871.207 101.386C871.207 100.975 871.329 100.602 871.571 100.266C871.814 99.9207 872.159 99.65 872.607 99.454C873.065 99.258 873.587 99.16 874.175 99.16C875.053 99.16 875.757 99.384 876.289 99.832C876.831 100.271 877.12 100.873 877.157 101.638H875.561C875.533 101.293 875.393 101.017 875.141 100.812C874.889 100.607 874.549 100.504 874.119 100.504C873.699 100.504 873.377 100.583 873.153 100.742C872.929 100.901 872.817 101.111 872.817 101.372C872.817 101.577 872.892 101.75 873.041 101.89C873.191 102.03 873.373 102.142 873.587 102.226C873.802 102.301 874.119 102.399 874.539 102.52C875.099 102.669 875.557 102.823 875.911 102.982C876.275 103.131 876.588 103.355 876.849 103.654C877.111 103.953 877.246 104.349 877.255 104.844C877.255 105.283 877.134 105.675 876.891 106.02C876.649 106.365 876.303 106.636 875.855 106.832C875.417 107.028 874.899 107.126 874.301 107.126Z" fill="#333333"/>
</svg>
